<svg width="46" height="46" viewBox="0 0 46 46" fill="none" xmlns="http://www.w3.org/2000/svg">
<circle cx="23.3388" cy="22.6178" r="22.6178" fill="#F2F2F2"/>
<path d="M29.2958 15.5587C29.0396 15.5587 28.7892 15.6347 28.5762 15.777C28.3632 15.9193 28.1972 16.1216 28.0992 16.3583C28.0012 16.5949 27.9755 16.8554 28.0255 17.1066C28.0755 17.3579 28.1988 17.5886 28.38 17.7698C28.5611 17.9509 28.7919 18.0743 29.0431 18.1243C29.2944 18.1742 29.5548 18.1486 29.7915 18.0505C30.0281 17.9525 30.2304 17.7865 30.3727 17.5735C30.5151 17.3605 30.591 17.1101 30.591 16.8539C30.591 16.5104 30.4546 16.181 30.2117 15.9381C29.9688 15.6952 29.6393 15.5587 29.2958 15.5587ZM34.2608 18.1707C34.2398 17.2752 34.0721 16.3892 33.7643 15.5479C33.4898 14.8282 33.0627 14.1764 32.5122 13.6375C31.9778 13.0843 31.3245 12.6598 30.6018 12.3963C29.7628 12.0791 28.8758 11.9076 27.979 11.889C26.8349 11.8242 26.4679 11.8242 23.5322 11.8242C20.5964 11.8242 20.2294 11.8242 19.0853 11.889C18.1885 11.9076 17.3015 12.0791 16.4625 12.3963C15.7411 12.6625 15.0884 13.0866 14.5521 13.6375C13.9988 14.172 13.5744 14.8253 13.3108 15.5479C12.9937 16.387 12.8221 17.274 12.8035 18.1707C12.7388 19.3148 12.7388 19.6818 12.7388 22.6176C12.7388 25.5534 12.7388 25.9204 12.8035 27.0645C12.8221 27.9612 12.9937 28.8482 13.3108 29.6873C13.5744 30.4099 13.9988 31.0632 14.5521 31.5977C15.0884 32.1486 15.7411 32.5727 16.4625 32.8389C17.3015 33.1561 18.1885 33.3276 19.0853 33.3462C20.2294 33.411 20.5964 33.411 23.5322 33.411C26.4679 33.411 26.8349 33.411 27.979 33.3462C28.8758 33.3276 29.7628 33.1561 30.6018 32.8389C31.3245 32.5754 31.9778 32.1509 32.5122 31.5977C33.0651 31.0608 33.4926 30.4085 33.7643 29.6873C34.0721 28.846 34.2398 27.96 34.2608 27.0645C34.2608 25.9204 34.3255 25.5534 34.3255 22.6176C34.3255 19.6818 34.3255 19.3148 34.2608 18.1707ZM32.318 26.935C32.3101 27.6201 32.186 28.2989 31.951 28.9425C31.7787 29.4122 31.5019 29.8367 31.1415 30.1838C30.7914 30.5405 30.3678 30.8167 29.9002 30.9933C29.2566 31.2283 28.5778 31.3524 27.8927 31.3602C26.8133 31.4142 26.414 31.425 23.5753 31.425C20.7367 31.425 20.3373 31.425 19.258 31.3602C18.5466 31.3736 17.8382 31.264 17.1641 31.0364C16.717 30.8509 16.3128 30.5753 15.9768 30.2269C15.6185 29.8802 15.3452 29.4554 15.1781 28.9857C14.9146 28.3329 14.7684 27.6386 14.7463 26.935C14.7463 25.8556 14.6816 25.4563 14.6816 22.6176C14.6816 19.7789 14.6816 19.3796 14.7463 18.3002C14.7512 17.5998 14.879 16.9057 15.1241 16.2495C15.3141 15.7939 15.6058 15.3878 15.9768 15.0622C16.3047 14.6911 16.71 14.3964 17.1641 14.1988C17.822 13.9614 18.5154 13.8373 19.2148 13.8318C20.2941 13.8318 20.6935 13.767 23.5322 13.767C26.3708 13.767 26.7702 13.767 27.8495 13.8318C28.5346 13.8396 29.2135 13.9637 29.8571 14.1988C30.3476 14.3808 30.7878 14.6767 31.1415 15.0622C31.4952 15.3938 31.7716 15.7991 31.951 16.2495C32.1909 16.9068 32.315 17.6006 32.318 18.3002C32.3719 19.3796 32.3827 19.7789 32.3827 22.6176C32.3827 25.4563 32.3719 25.8556 32.318 26.935ZM23.5322 17.0806C22.4375 17.0827 21.368 17.4093 20.4589 18.019C19.5498 18.6287 18.8418 19.4942 18.4243 20.5061C18.0069 21.5181 17.8988 22.6311 18.1137 23.7044C18.3285 24.7778 18.8567 25.7634 19.6315 26.5367C20.4063 27.3099 21.3929 27.8362 22.4667 28.049C23.5405 28.2618 24.6532 28.1515 25.6643 27.7321C26.6755 27.3127 27.5396 26.603 28.1475 25.6927C28.7555 24.7823 29.0799 23.7123 29.0799 22.6176C29.0814 21.8892 28.9388 21.1676 28.6603 20.4945C28.3819 19.8214 27.9731 19.2099 27.4576 18.6953C26.942 18.1808 26.3297 17.7732 25.6561 17.4961C24.9824 17.2189 24.2606 17.0777 23.5322 17.0806ZM23.5322 26.2118C22.8213 26.2118 22.1264 26.001 21.5353 25.6061C20.9443 25.2111 20.4836 24.6498 20.2115 23.993C19.9395 23.3363 19.8683 22.6136 20.007 21.9164C20.1457 21.2192 20.488 20.5788 20.9907 20.0761C21.4933 19.5735 22.1338 19.2311 22.831 19.0925C23.5282 18.9538 24.2508 19.025 24.9076 19.297C25.5643 19.569 26.1257 20.0297 26.5206 20.6208C26.9156 21.2118 27.1263 21.9067 27.1263 22.6176C27.1263 23.0896 27.0334 23.557 26.8528 23.993C26.6721 24.4291 26.4074 24.8253 26.0736 25.1591C25.7399 25.4928 25.3437 25.7576 24.9076 25.9382C24.4715 26.1188 24.0041 26.2118 23.5322 26.2118Z" fill="black"/>
</svg>
