<svg width="47" height="46" viewBox="0 0 47 46" fill="none" xmlns="http://www.w3.org/2000/svg">
<circle cx="23.4783" cy="22.6178" r="22.6178" fill="#F2F2F2"/>
<path d="M28.9718 18.6549C28.0776 18.6545 27.1972 18.8757 26.4094 19.2987C26.3375 19.1093 26.2097 18.9463 26.043 18.8314C25.8763 18.7164 25.6785 18.6548 25.476 18.6549H21.4808C21.3496 18.6548 21.2197 18.6806 21.0985 18.7308C20.9773 18.781 20.8672 18.8545 20.7744 18.9473C20.6816 19.0401 20.6081 19.1502 20.5579 19.2714C20.5077 19.3926 20.482 19.5225 20.482 19.6537V31.6392C20.482 31.7704 20.5077 31.9003 20.5579 32.0215C20.6081 32.1427 20.6816 32.2529 20.7744 32.3456C20.8672 32.4384 20.9773 32.5119 21.0985 32.5621C21.2197 32.6123 21.3496 32.6381 21.4808 32.638H25.476C25.6072 32.6381 25.7371 32.6123 25.8583 32.5621C25.9795 32.5119 26.0896 32.4384 26.1824 32.3456C26.2752 32.2529 26.3487 32.1427 26.3989 32.0215C26.4491 31.9003 26.4749 31.7704 26.4748 31.6392V26.1459C26.4748 25.881 26.58 25.6269 26.7673 25.4396C26.9546 25.2523 27.2087 25.1471 27.4736 25.1471C27.7385 25.1471 27.9925 25.2523 28.1798 25.4396C28.3671 25.6269 28.4724 25.881 28.4724 26.1459V31.6392C28.4723 31.7704 28.4981 31.9003 28.5482 32.0215C28.5984 32.1427 28.672 32.2529 28.7647 32.3456C28.8575 32.4384 28.9676 32.5119 29.0888 32.5621C29.2101 32.6123 29.34 32.6381 29.4712 32.638H33.4663C33.5975 32.6381 33.7274 32.6123 33.8486 32.5621C33.9698 32.5119 34.08 32.4384 34.1727 32.3456C34.2655 32.2529 34.3391 32.1427 34.3892 32.0215C34.4394 31.9003 34.4652 31.7704 34.4651 31.6392V24.1483C34.4633 22.6919 33.8839 21.2957 32.8541 20.2659C31.8243 19.2361 30.4281 18.6567 28.9718 18.6549ZM32.4675 30.6404H30.4699V26.1459C30.4699 25.3512 30.1543 24.589 29.5923 24.0271C29.0304 23.4652 28.2683 23.1495 27.4736 23.1495C26.6789 23.1495 25.9167 23.4652 25.3548 24.0271C24.7929 24.589 24.4772 25.3512 24.4772 26.1459V30.6404H22.4796V20.6525H24.4772V21.3548C24.4773 21.5617 24.5417 21.7635 24.6614 21.9323C24.7812 22.1011 24.9503 22.2286 25.1456 22.2971C25.3409 22.3656 25.5526 22.3718 25.7516 22.3148C25.9505 22.2579 26.1269 22.1405 26.2563 21.979C26.7045 21.4097 27.3193 20.9947 28.0149 20.7917C28.7105 20.5888 29.452 20.6081 30.1361 20.847C30.8201 21.0859 31.4125 21.5324 31.8305 22.1243C32.2484 22.7161 32.4712 23.4237 32.4675 24.1483V30.6404ZM18.4845 18.6549H14.4893C14.3581 18.6548 14.2282 18.6806 14.107 18.7308C13.9858 18.781 13.8756 18.8545 13.7829 18.9473C13.6901 19.0401 13.6165 19.1502 13.5664 19.2714C13.5162 19.3926 13.4904 19.5225 13.4905 19.6537V31.6392C13.4904 31.7704 13.5162 31.9003 13.5664 32.0215C13.6165 32.1427 13.6901 32.2529 13.7829 32.3456C13.8756 32.4384 13.9858 32.5119 14.107 32.5621C14.2282 32.6123 14.3581 32.6381 14.4893 32.638H18.4845C18.6156 32.6381 18.7456 32.6123 18.8668 32.5621C18.988 32.5119 19.0981 32.4384 19.1909 32.3456C19.2836 32.2529 19.3572 32.1427 19.4074 32.0215C19.4575 31.9003 19.4833 31.7704 19.4832 31.6392V19.6537C19.4833 19.5225 19.4575 19.3926 19.4074 19.2714C19.3572 19.1502 19.2836 19.0401 19.1909 18.9473C19.0981 18.8545 18.988 18.781 18.8668 18.7308C18.7456 18.6806 18.6156 18.6548 18.4845 18.6549ZM17.4857 30.6404H15.4881V20.6525H17.4857V30.6404ZM16.5015 11.2069C16.0644 11.1808 15.6265 11.2438 15.2145 11.3922C14.8025 11.5405 14.425 11.7711 14.105 12.07C13.7849 12.3688 13.529 12.7297 13.3527 13.1305C13.1765 13.5314 13.0836 13.9639 13.0798 14.4018C13.0759 14.8396 13.1612 15.2737 13.3304 15.6776C13.4996 16.0815 13.7491 16.4468 14.0639 16.7512C14.3787 17.0556 14.7521 17.2928 15.1614 17.4484C15.5707 17.6039 16.0074 17.6746 16.4449 17.6561H16.4732C16.9115 17.6822 17.3504 17.6186 17.7633 17.4692C18.1762 17.3199 18.5542 17.0879 18.8744 16.7875C19.1946 16.4871 19.4501 16.1246 19.6255 15.7221C19.8008 15.3195 19.8922 14.8855 19.8942 14.4465C19.8961 14.0074 19.8085 13.5726 19.6367 13.1686C19.4649 12.7646 19.2125 12.3998 18.895 12.0966C18.5774 11.7934 18.2014 11.5581 17.7899 11.4052C17.3784 11.2522 16.94 11.1848 16.5015 11.2069H16.5015ZM16.4732 15.6586H16.4449C16.2722 15.6795 16.097 15.6633 15.931 15.611C15.7651 15.5587 15.6122 15.4716 15.4827 15.3554C15.3532 15.2392 15.2501 15.0966 15.1802 14.9373C15.1103 14.778 15.0752 14.6055 15.0774 14.4315C15.0774 13.6863 15.6363 13.2045 16.5015 13.2045C16.676 13.1813 16.8534 13.1957 17.0219 13.2467C17.1903 13.2978 17.3459 13.3844 17.4781 13.5007C17.6102 13.617 17.7159 13.7602 17.7881 13.9208C17.8602 14.0814 17.8971 14.2555 17.8963 14.4315C17.8963 15.1767 17.3374 15.6586 16.4732 15.6586Z" fill="black"/>
</svg>
