<svg width="279" height="66" viewBox="0 0 279 66" fill="none" xmlns="http://www.w3.org/2000/svg">
<mask id="mask0_702_3580" style="mask-type:alpha" maskUnits="userSpaceOnUse" x="0" y="0" width="56" height="66">
<path d="M25.3839 0.707924C24.5217 0.761855 23.664 0.894516 22.8258 1.11063C22.0604 1.30785 21.3023 1.53774 20.5393 1.74599C13.4321 3.61741 8.00458 7.78501 4.15046 14.1374C0.669165 19.8737 -0.513228 26.0907 0.197525 32.7217C0.814881 38.4805 3.36491 43.3653 6.9927 47.7168C10.219 51.5868 14.0212 54.7903 18.19 57.5723C22.5142 60.4577 27.119 62.7153 32.057 64.2789C33.2763 64.6647 34.5288 64.8985 35.7798 65.1406C36.0472 65.1922 36.3382 65.2418 36.5227 64.9643C36.6742 64.7367 36.6145 64.5017 36.5138 64.2852C36.4057 64.0534 36.2537 63.8451 36.0921 63.6471C35.2628 62.6319 34.6571 61.4867 34.1471 60.2814C33.5464 58.8607 33.7618 57.2939 35.7433 56.7712C40.9112 55.4072 45.1932 52.5122 48.6958 48.4643C53.7362 42.6386 56.0917 35.7851 55.6925 28.0605C55.2693 19.8753 51.9977 12.9793 45.8915 7.5874C40.5605 2.88049 34.3652 0.642578 27.455 0.642578C26.7713 0.642578 26.0815 0.664623 25.3839 0.707924Z" fill="white"/>
</mask>
<g mask="url(#mask0_702_3580)">
<path d="M57.6716 -1.32617L57.6705 27.5935L49.6874 27.5324L49.606 27.532C47.7183 27.532 45.865 28.0508 44.242 29.0349L42.2938 30.2171L40.2635 27.8937C40.1 27.7075 39.917 27.5383 39.7182 27.3902C38.9668 26.8301 38.046 26.6014 37.1256 26.7454C36.2048 26.8895 35.394 27.3891 34.8429 28.1524L33.5695 29.9159L31.8511 23.5427C31.5496 22.4227 30.6707 21.5646 29.5553 21.3036C28.7484 21.1162 27.9175 21.2571 27.2153 21.7039C26.5131 22.1503 26.0248 22.8479 25.8392 23.6675L24.2894 30.5139L23.3352 26.1656C23.0605 24.9165 22.1404 23.9119 20.9348 23.5447C20.0415 23.2719 19.0986 23.3687 18.2786 23.8175C17.4582 24.2658 16.8586 25.0114 16.5904 25.918L15.4534 29.7628L14.6988 27.4446C14.2249 25.9908 12.8944 25.0146 11.3873 25.0146H9.29921C8.22921 25.0146 7.3615 25.8955 7.3615 26.9828C7.3615 28.0701 8.22921 28.9511 9.29921 28.9511H11.1071L13.3169 35.7384C13.7199 36.9733 15.0379 37.6473 16.2556 37.2379C16.9745 36.9962 17.5337 36.4112 17.7511 35.6751L19.8753 28.4933L21.9963 38.1574C22.1315 38.7731 22.4943 39.2986 23.019 39.6372C23.3961 39.8808 23.8247 40.006 24.2615 40.006C24.4312 40.006 24.6029 39.9871 24.7726 39.9486C25.64 39.7517 26.3306 39.0561 26.5321 38.1728L28.9263 27.5973L30.256 32.5274C30.4742 33.3387 30.9911 34.015 31.7104 34.4319C32.4297 34.848 33.2656 34.9547 34.0644 34.7334C34.7364 34.5469 35.3336 34.1292 35.7459 33.5584L37.6844 30.8733L39.3958 32.8309C40.6309 34.2422 42.6841 34.5642 44.2804 33.5966L46.2286 32.4148C47.2649 31.7862 48.431 31.4602 49.6575 31.4689L57.6705 31.5301L57.6716 67.1485H-1.93945V-1.32617H57.6716Z" fill="#D2D9D6"/>
</g>
<path d="M84.4597 20.3636V25.7045H69.0211V20.3636H84.4597ZM72.5261 14.2216H79.6362V38.1222C79.6362 38.7786 79.7363 39.2905 79.9366 39.6577C80.1369 40.0137 80.4151 40.2641 80.7711 40.4087C81.1383 40.5534 81.5611 40.6257 82.0396 40.6257C82.3734 40.6257 82.7072 40.5979 83.041 40.5423C83.3748 40.4755 83.6307 40.4254 83.8088 40.392L84.927 45.6829C84.571 45.7942 84.0703 45.9221 83.4249 46.0668C82.7795 46.2225 81.9951 46.3171 81.0716 46.3505C79.358 46.4173 77.8559 46.1892 76.5652 45.6662C75.2856 45.1432 74.2897 44.331 73.5776 43.2294C72.8655 42.1278 72.515 40.737 72.5261 39.0568V14.2216ZM96.4016 46.484C94.766 46.484 93.3084 46.2003 92.0288 45.6328C90.7492 45.0542 89.7366 44.203 88.9911 43.0792C88.2567 41.9442 87.8896 40.5311 87.8896 38.8398C87.8896 37.4156 88.151 36.2195 88.674 35.2514C89.197 34.2834 89.9091 33.5045 90.8104 32.9148C91.7116 32.325 92.7353 31.88 93.8814 31.5795C95.0386 31.2791 96.2514 31.0677 97.5199 30.9453C99.0109 30.7895 100.213 30.6449 101.125 30.5114C102.037 30.3667 102.699 30.1553 103.111 29.8771C103.523 29.599 103.729 29.1873 103.729 28.642V28.5419C103.729 27.4848 103.395 26.667 102.727 26.0884C102.071 25.5098 101.136 25.2205 99.9233 25.2205C98.6437 25.2205 97.6256 25.5043 96.869 26.0717C96.1123 26.6281 95.6116 27.3291 95.3668 28.1747L88.7908 27.6406C89.1246 26.0829 89.7811 24.7365 90.7603 23.6016C91.7395 22.4555 93.0024 21.5765 94.549 20.9645C96.1068 20.3414 97.9093 20.0298 99.9567 20.0298C101.381 20.0298 102.744 20.1967 104.046 20.5305C105.359 20.8643 106.522 21.3817 107.534 22.0827C108.558 22.7837 109.364 23.685 109.954 24.7866C110.544 25.877 110.839 27.1844 110.839 28.7088V46H104.096V42.445H103.896C103.484 43.2461 102.933 43.9527 102.243 44.5646C101.553 45.1655 100.724 45.6384 99.7564 45.9833C98.7884 46.3171 97.6701 46.484 96.4016 46.484ZM98.4379 41.5771C99.4838 41.5771 100.407 41.3712 101.208 40.9595C102.01 40.5367 102.638 39.9692 103.094 39.2571C103.551 38.545 103.779 37.7383 103.779 36.837V34.1165C103.556 34.2611 103.25 34.3946 102.861 34.517C102.482 34.6283 102.054 34.734 101.576 34.8342C101.097 34.9232 100.619 35.0066 100.14 35.0845C99.6618 35.1513 99.2279 35.2125 98.8384 35.2681C98.0039 35.3905 97.2751 35.5852 96.652 35.8523C96.0289 36.1193 95.5449 36.4809 95.1999 36.9371C94.855 37.3822 94.6825 37.9386 94.6825 38.6062C94.6825 39.5742 95.033 40.3142 95.734 40.826C96.4461 41.3267 97.3474 41.5771 98.4379 41.5771ZM123.465 11.8182V46H116.355V11.8182H123.465ZM135.603 38.6229L135.62 30.0941H136.655L144.866 20.3636H153.028L141.995 33.2486H140.31L135.603 38.6229ZM129.161 46V11.8182H136.271V46H129.161ZM145.183 46L137.639 34.8342L142.379 29.8104L153.512 46H145.183ZM156.516 46V20.3636H163.409V24.8366H163.676C164.144 23.2455 164.928 22.0438 166.03 21.2315C167.131 20.4081 168.4 19.9964 169.835 19.9964C170.191 19.9964 170.575 20.0187 170.987 20.0632C171.398 20.1077 171.76 20.1689 172.071 20.2468V26.5558C171.738 26.4556 171.276 26.3666 170.686 26.2887C170.096 26.2108 169.557 26.1719 169.067 26.1719C168.021 26.1719 167.087 26.4 166.263 26.8562C165.451 27.3013 164.806 27.9244 164.327 28.7255C163.86 29.5266 163.626 30.4502 163.626 31.4961V46H156.516ZM186.137 46.5007C183.545 46.5007 181.303 45.9499 179.411 44.8484C177.531 43.7357 176.079 42.189 175.055 40.2085C174.031 38.2167 173.519 35.9079 173.519 33.282C173.519 30.6338 174.031 28.3194 175.055 26.3388C176.079 24.3471 177.531 22.8004 179.411 21.6989C181.303 20.5862 183.545 20.0298 186.137 20.0298C188.73 20.0298 190.966 20.5862 192.847 21.6989C194.738 22.8004 196.196 24.3471 197.22 26.3388C198.243 28.3194 198.755 30.6338 198.755 33.282C198.755 35.9079 198.243 38.2167 197.22 40.2085C196.196 42.189 194.738 43.7357 192.847 44.8484C190.966 45.9499 188.73 46.5007 186.137 46.5007ZM186.171 40.9929C187.35 40.9929 188.335 40.6591 189.125 39.9915C189.915 39.3127 190.51 38.3892 190.911 37.2209C191.322 36.0526 191.528 34.7229 191.528 33.2319C191.528 31.7409 191.322 30.4112 190.911 29.2429C190.51 28.0746 189.915 27.151 189.125 26.4723C188.335 25.7936 187.35 25.4542 186.171 25.4542C184.98 25.4542 183.979 25.7936 183.166 26.4723C182.365 27.151 181.759 28.0746 181.347 29.2429C180.947 30.4112 180.746 31.7409 180.746 33.2319C180.746 34.7229 180.947 36.0526 181.347 37.2209C181.759 38.3892 182.365 39.3127 183.166 39.9915C183.979 40.6591 184.98 40.9929 186.171 40.9929ZM214.961 46.5007C212.369 46.5007 210.127 45.9499 208.235 44.8484C206.355 43.7357 204.903 42.189 203.879 40.2085C202.855 38.2167 202.344 35.9079 202.344 33.282C202.344 30.6338 202.855 28.3194 203.879 26.3388C204.903 24.3471 206.355 22.8004 208.235 21.6989C210.127 20.5862 212.369 20.0298 214.961 20.0298C217.554 20.0298 219.791 20.5862 221.671 21.6989C223.563 22.8004 225.02 24.3471 226.044 26.3388C227.068 28.3194 227.579 30.6338 227.579 33.282C227.579 35.9079 227.068 38.2167 226.044 40.2085C225.02 42.189 223.563 43.7357 221.671 44.8484C219.791 45.9499 217.554 46.5007 214.961 46.5007ZM214.995 40.9929C216.174 40.9929 217.159 40.6591 217.949 39.9915C218.739 39.3127 219.334 38.3892 219.735 37.2209C220.147 36.0526 220.352 34.7229 220.352 33.2319C220.352 31.7409 220.147 30.4112 219.735 29.2429C219.334 28.0746 218.739 27.151 217.949 26.4723C217.159 25.7936 216.174 25.4542 214.995 25.4542C213.804 25.4542 212.803 25.7936 211.991 26.4723C211.189 27.151 210.583 28.0746 210.171 29.2429C209.771 30.4112 209.57 31.7409 209.57 33.2319C209.57 34.7229 209.771 36.0526 210.171 37.2209C210.583 38.3892 211.189 39.3127 211.991 39.9915C212.803 40.6591 213.804 40.9929 214.995 40.9929ZM232.203 46V20.3636H238.979V24.8867H239.279C239.813 23.3846 240.704 22.1996 241.95 21.3317C243.196 20.4638 244.687 20.0298 246.423 20.0298C248.181 20.0298 249.677 20.4693 250.912 21.3484C252.148 22.2163 252.971 23.3957 253.383 24.8867H253.65C254.173 23.418 255.118 22.2441 256.487 21.3651C257.867 20.4749 259.497 20.0298 261.377 20.0298C263.77 20.0298 265.711 20.792 267.202 22.3164C268.704 23.8297 269.455 25.9772 269.455 28.7589V46H262.362V30.1609C262.362 28.7366 261.984 27.6684 261.227 26.9563C260.47 26.2442 259.525 25.8881 258.39 25.8881C257.099 25.8881 256.092 26.2998 255.369 27.1232C254.646 27.9355 254.284 29.0092 254.284 30.3445V46H247.391V30.0107C247.391 28.7533 247.029 27.7519 246.306 27.0064C245.594 26.2609 244.654 25.8881 243.485 25.8881C242.695 25.8881 241.983 26.0884 241.349 26.489C240.726 26.8784 240.231 27.4292 239.863 28.1413C239.496 28.8423 239.313 29.6657 239.313 30.6115V46H232.203Z" fill="black"/>
</svg>
