<svg width="46" height="46" viewBox="0 0 46 46" fill="none" xmlns="http://www.w3.org/2000/svg">
<circle cx="22.6178" cy="22.6178" r="22.6178" fill="#F2F2F2"/>
<path d="M30.7993 12.786C30.5241 12.557 30.1919 12.407 29.8382 12.3518C29.4845 12.2966 29.1225 12.3384 28.7906 12.4726L11.4688 19.4661C11.0983 19.6185 10.783 19.88 10.5646 20.2158C10.3463 20.5516 10.2352 20.9459 10.2462 21.3463C10.2571 21.7467 10.3896 22.1343 10.626 22.4577C10.8624 22.781 11.1916 23.0249 11.5698 23.1568L15.0736 24.3754L17.0266 30.8337C17.0531 30.9199 17.0916 31.0021 17.141 31.0776C17.1485 31.0892 17.159 31.0979 17.167 31.1091C17.224 31.1887 17.293 31.259 17.3714 31.3177C17.3937 31.3347 17.415 31.3506 17.4388 31.3657C17.5306 31.4266 17.6322 31.4711 17.7392 31.4973L17.7506 31.4982L17.7571 31.501C17.8214 31.5141 17.8869 31.5207 17.9525 31.5208C17.9588 31.5208 17.9644 31.5178 17.9707 31.5177C18.0697 31.516 18.1679 31.4989 18.2617 31.4671C18.2835 31.4597 18.3022 31.4473 18.3234 31.4383C18.3934 31.4093 18.4597 31.3721 18.5209 31.3276C18.5699 31.2862 18.6189 31.2449 18.668 31.2037L21.2798 28.32L25.1754 31.3377C25.5183 31.6047 25.9405 31.7498 26.3751 31.7502C26.8305 31.7496 27.2719 31.5925 27.6253 31.3051C27.9786 31.0178 28.2224 30.6177 28.3158 30.172L31.4694 14.6908C31.5409 14.3424 31.5163 13.9811 31.3982 13.6455C31.2802 13.31 31.0732 13.0129 30.7993 12.786ZM18.3358 24.6831C18.2018 24.8166 18.1101 24.9867 18.0724 25.1721L17.7733 26.6258L17.0154 24.1194L20.9448 22.0732L18.3358 24.6831ZM26.36 29.8095L21.7565 26.2434C21.5639 26.0945 21.3223 26.0238 21.0799 26.0451C20.8374 26.0664 20.6119 26.1783 20.4483 26.3585L19.6118 27.2818L19.9074 25.845L26.7536 18.9988C26.917 18.8356 27.0166 18.6193 27.0343 18.389C27.052 18.1588 26.9866 17.9298 26.85 17.7435C26.7134 17.5573 26.5146 17.4262 26.2897 17.3738C26.0648 17.3215 25.8285 17.3515 25.6238 17.4583L15.7983 22.574L12.1984 21.2567L29.5759 14.3047L26.36 29.8095Z" fill="black"/>
</svg>
