<svg width="46" height="46" viewBox="0 0 46 46" fill="none" xmlns="http://www.w3.org/2000/svg">
<circle cx="22.6178" cy="22.6178" r="22.6178" fill="#F2F2F2"/>
<path d="M23.0779 12.9674C24.1263 12.9512 25.1686 12.9608 26.2097 12.9512C26.2728 14.1773 26.7137 15.4263 27.6112 16.2932C28.507 17.1817 29.774 17.5884 31.0067 17.726V20.9514C29.8515 20.9136 28.6908 20.6733 27.6425 20.1759C27.1859 19.9692 26.7606 19.7031 26.3443 19.4309C26.3388 21.7715 26.3539 24.109 26.3292 26.4399C26.2668 27.5597 25.8973 28.6741 25.2461 29.5969C24.1984 31.133 22.3799 32.1345 20.5121 32.1657C19.3665 32.2312 18.222 31.9188 17.2458 31.3433C15.628 30.3893 14.4895 28.6429 14.3237 26.7685C14.3029 26.3716 14.2996 25.9739 14.3141 25.5766C14.4583 24.0525 15.2123 22.5945 16.3825 21.6026C17.709 20.4474 19.5671 19.8971 21.3069 20.2227C21.3231 21.4092 21.2757 22.5945 21.2757 23.781C20.4809 23.5239 19.5521 23.596 18.8576 24.0784C18.3495 24.4131 17.9656 24.9055 17.7649 25.4799C17.5991 25.886 17.6465 26.3372 17.6561 26.7685C17.8466 28.083 19.1106 29.1878 20.4599 29.0682C21.3544 29.0586 22.2117 28.5396 22.6778 27.7796C22.8286 27.5135 22.9974 27.2413 23.0065 26.9283C23.0852 25.4955 23.0539 24.0687 23.0635 22.6359C23.0701 19.4069 23.0539 16.1868 23.0785 12.968L23.0779 12.9674Z" fill="black"/>
</svg>
