<svg width="47" height="46" viewBox="0 0 47 46" fill="none" xmlns="http://www.w3.org/2000/svg">
<circle cx="23.4783" cy="22.6178" r="22.6178" fill="#F2F2F2"/>
<path d="M34.1103 16.352C34.1104 16.1827 34.0657 16.0164 33.9806 15.87C33.8955 15.7236 33.7732 15.6024 33.626 15.5187C33.4789 15.435 33.3121 15.3917 33.1428 15.3934C32.9736 15.3951 32.8077 15.4416 32.6623 15.5282C32.1012 15.8622 31.4972 16.1179 30.867 16.2883C29.9669 15.516 28.8189 15.0934 27.6329 15.0977C26.3318 15.0992 25.0822 15.6063 24.148 16.5119C23.2137 17.4175 22.668 18.6507 22.626 19.9511C20.061 19.5421 17.7362 18.2033 16.0951 16.19C15.9962 16.0701 15.8699 15.9756 15.7269 15.9147C15.5838 15.8538 15.4283 15.8281 15.2732 15.8399C15.1183 15.8527 14.9688 15.903 14.8377 15.9865C14.7065 16.07 14.5977 16.1842 14.5206 16.3192C14.1253 17.0091 13.8982 17.7826 13.8579 18.5768C13.8175 19.371 13.9651 20.1635 14.2885 20.8899L14.2866 20.8918C14.1413 20.9813 14.0213 21.1067 13.9382 21.2558C13.8551 21.4049 13.8117 21.5729 13.812 21.7436C13.8103 21.8844 13.8187 22.0252 13.8373 22.1648C13.9352 23.3709 14.4697 24.4998 15.3406 25.3399C15.2815 25.4525 15.2455 25.5757 15.2346 25.7023C15.2236 25.829 15.238 25.9565 15.277 26.0775C15.6567 27.2605 16.4641 28.2592 17.5413 28.8782C16.4469 29.3014 15.2652 29.4489 14.1004 29.3078C13.8848 29.2808 13.6664 29.3278 13.481 29.4412C13.2956 29.5546 13.1543 29.7276 13.0802 29.9319C13.0061 30.1361 13.0036 30.3595 13.0732 30.5654C13.1427 30.7712 13.2801 30.9473 13.4629 31.0648C15.4663 32.3551 17.799 33.0411 20.1819 33.0408C22.8842 33.0712 25.5208 32.2077 27.6816 30.5846C29.8423 28.9615 31.4061 26.6697 32.1296 24.0659C32.4681 22.9317 32.6408 21.7544 32.6426 20.5708C32.6426 20.508 32.6426 20.4435 32.6417 20.3789C33.1421 19.8392 33.5298 19.205 33.782 18.5135C34.0342 17.822 34.1458 17.0872 34.1103 16.352V16.352ZM30.9409 19.4306C30.7825 19.6179 30.7024 19.8589 30.7171 20.1037C30.7265 20.2618 30.7256 20.4209 30.7256 20.5708C30.7236 21.571 30.577 22.5657 30.2903 23.524C29.6994 25.7395 28.3821 27.6926 26.5493 29.0705C24.7165 30.4485 22.4744 31.1715 20.1819 31.1238C19.3584 31.1241 18.5378 31.0273 17.737 30.8355C18.7582 30.5064 19.713 29.999 20.5573 29.3369C20.7128 29.2144 20.8266 29.0469 20.8831 28.8572C20.9396 28.6675 20.936 28.465 20.8728 28.2775C20.8096 28.0899 20.69 27.9265 20.5302 27.8097C20.3705 27.6928 20.1785 27.6282 19.9806 27.6248C19.1839 27.6125 18.4232 27.2913 17.8586 26.729C18.0018 26.7019 18.1441 26.6682 18.2854 26.6279C18.4925 26.569 18.6737 26.4421 18.7998 26.2677C18.926 26.0932 18.9898 25.8814 18.9809 25.6663C18.9721 25.4512 18.8911 25.2454 18.751 25.0819C18.6109 24.9185 18.4199 24.8069 18.2087 24.7652C17.7462 24.6739 17.3111 24.4771 16.937 24.1903C16.563 23.9034 16.2601 23.5341 16.052 23.1112C16.2253 23.1348 16.3996 23.1495 16.5743 23.1552C16.7819 23.1583 16.9852 23.0954 17.1546 22.9754C17.3241 22.8554 17.4509 22.6846 17.5169 22.4878C17.5802 22.2891 17.5769 22.0753 17.5077 21.8787C17.4384 21.6821 17.3069 21.5134 17.1332 21.3982C16.7116 21.1173 16.3662 20.7363 16.128 20.2892C15.8898 19.8421 15.7663 19.3429 15.7684 18.8363C15.7684 18.7726 15.7703 18.709 15.774 18.6462C17.9223 20.6498 20.7088 21.8309 23.6425 21.9814C23.7906 21.9872 23.938 21.9593 24.0738 21.8998C24.2095 21.8403 24.3299 21.7507 24.426 21.6379C24.521 21.5239 24.5883 21.3894 24.6226 21.245C24.6569 21.1006 24.6571 20.9502 24.6234 20.8057C24.5686 20.577 24.5406 20.3426 24.5401 20.1074C24.541 19.2874 24.8671 18.5013 25.4469 17.9215C26.0267 17.3417 26.8129 17.0156 27.6329 17.0147C28.0547 17.0136 28.4723 17.0999 28.8591 17.2683C29.2459 17.4366 29.5936 17.6834 29.8803 17.9929C29.9909 18.1118 30.13 18.2005 30.2845 18.2505C30.439 18.3004 30.6037 18.3101 30.763 18.2784C31.1567 18.2018 31.5448 18.0986 31.9246 17.9695C31.6656 18.4995 31.3345 18.9912 30.9409 19.4306V19.4306Z" fill="black"/>
</svg>
